<?xml version="1.0" encoding="utf-8"?>
<!-- Generator: Adobe Illustrator 21.0.0, SVG Export Plug-In . SVG Version: 6.00 Build 0)  -->
<svg version="1.1" id="Capa_1" xmlns="http://www.w3.org/2000/svg" xmlns:xlink="http://www.w3.org/1999/xlink" x="0px" y="0px"
	 viewBox="0 0 100 100" style="enable-background:new 0 0 100 100;" xml:space="preserve">
<style type="text/css">
	.st0{fill:#F2F2F2;}
</style>
<g>
	<g>
		<g>
			<path class="st0" d="M84.2,72.9h-8.9c-0.8,0-1.4,0.6-1.4,1.4c0,0.8,0.6,1.4,1.4,1.4h4.9c-0.8,0.9-1.7,1.8-2.6,2.7
				c-0.5-0.3-1.1-0.5-1.6-0.7l-10.1-3l-2.7-4c-0.2-0.3-0.5-0.5-0.9-0.6c-0.1,0-0.2,0-0.3,0v-4.4l0.8-0.6c1.4-1.1,2.3-2.7,2.5-4.5
				l0.2-1.1h1.1c2.4,0,4.4-2,4.4-4.4v-3c0-2.1-1.5-3.9-3.6-4.3l1.4-8.5c0.6-3.8-0.5-7.8-3-10.7c-2.5-3-6.2-4.7-10.1-4.7H44.6
				c-3.9,0-7.6,1.7-10.1,4.7c-2.5,3-3.6,6.9-3,10.7l1.4,8.5c-2,0.4-3.6,2.2-3.6,4.3v3c0,2.4,2,4.4,4.4,4.4h1.1l0.2,1.1
				c0.3,1.8,1.2,3.3,2.5,4.5l0.8,0.6v4.4c-0.1,0-0.2,0-0.3,0c-0.4,0.1-0.7,0.3-0.9,0.6l-2.7,4l-10.1,3c-0.6,0.2-1.1,0.4-1.6,0.7
				c-0.3-0.3-0.6-0.6-0.9-0.9C14,69.8,9.8,59.7,9.8,49c0-6.5,1.6-13,4.6-18.7c0.4-0.7,0.1-1.5-0.6-1.9c-0.7-0.4-1.5-0.1-1.9,0.6
				C8.7,35.1,7,42.1,7,49c0,11.5,4.5,22.3,12.6,30.4S38.5,92,50,92c12.7,0,24.6-5.5,32.8-15.2v6.4c0,0.8,0.6,1.4,1.4,1.4
				c0.8,0,1.4-0.6,1.4-1.4v-8.9C85.6,73.5,84.9,72.9,84.2,72.9z M63.2,75.7l-6,8.4l-4.9-3.9l9.3-7L63.2,75.7z M67.9,52v3
				c0,0.9-0.7,1.6-1.6,1.6h-0.6l1-6.1C67.4,50.6,67.9,51.2,67.9,52z M33.7,56.5c-0.9,0-1.6-0.7-1.6-1.6v-3c0-0.8,0.5-1.4,1.2-1.5
				l1,6.1H33.7z M35.7,47.6l-1.4-8.8c-0.5-3,0.4-6.1,2.4-8.5c2-2.3,4.9-3.7,8-3.7h10.8c3.1,0,6,1.3,8,3.7c2,2.3,2.9,5.4,2.4,8.5
				l-1.3,8l-1.2-8.4c-0.1-0.4-0.3-0.8-0.6-1c-0.4-0.2-0.8-0.3-1.2-0.1c-0.1,0-13.3,4.4-21.8,4.4c-0.5,0-1,0.3-1.2,0.8L35.7,47.6
				L35.7,47.6L35.7,47.6z M37.6,60l-1.5-9.6h0.5c0.5,0,1-0.3,1.2-0.8l2.6-5.2c7.2-0.2,16.6-2.9,20.3-4l1.3,8.8
				c0.1,0.7,0.7,1.2,1.4,1.2h0.5l-1.1,6.7C62.5,57.5,59.1,61,50,61c-0.8,0-1.4,0.6-1.4,1.4c0,0.8,0.6,1.4,1.4,1.4
				c5.8,0,9.7-1.3,12-2.6c-0.3,0.6-0.7,1.2-1.2,1.6l-6,5c-0.5,0.5-1.2,0.7-2,0.7h-5.7c-0.7,0-1.4-0.3-2-0.7l-6-5
				C38.4,62,37.8,61,37.6,60z M38.5,73.3l9.3,7l-4.9,3.9l-6-8.4L38.5,73.3z M48.6,89.2c-8.8-0.3-17.1-3.4-23.8-8.9
				c0,0,0.1,0,0.1-0.1l9.7-2.9l6.9,9.6c0.2,0.3,0.6,0.5,0.9,0.6c0.1,0,0.1,0,0.2,0c0.3,0,0.6-0.1,0.9-0.3l5.2-4.1V89.2z M41,71.7
				v-3.9l2.4,2c1,0.9,2.4,1.4,3.7,1.4h5.7c1.4,0,2.7-0.5,3.7-1.4l2.4-2v3.9l-9,6.8L41,71.7z M51.4,89.2v-6.1l5.2,4.1
				c0.2,0.2,0.6,0.3,0.9,0.3c0.1,0,0.1,0,0.2,0c0.4-0.1,0.7-0.3,0.9-0.6l6.9-9.6l9.7,2.9c0.1,0,0.1,0,0.2,0.1
				C68.5,85.8,60.2,88.9,51.4,89.2z"/>
		</g>
	</g>
	<g>
		<g>
			<path class="st0" d="M80.4,18.6C72.3,10.5,61.5,6,50,6c-6.8,0-13.3,1.5-19.4,4.6c-5.1,2.6-9.7,6.2-13.4,10.6v-6.4
				c0-0.8-0.6-1.4-1.4-1.4c-0.8,0-1.4,0.6-1.4,1.4v8.9c0,0.8,0.6,1.4,1.4,1.4h8.9c0.8,0,1.4-0.6,1.4-1.4c0-0.8-0.6-1.4-1.4-1.4h-4.8
				c3.4-3.8,7.5-7,12-9.3c5.6-2.9,11.7-4.3,18.1-4.3c10.7,0,20.8,4.2,28.4,11.8C86,28.2,90.2,38.3,90.2,49c0,6.5-1.6,13-4.6,18.7
				c-0.4,0.7-0.1,1.5,0.6,1.9c0.2,0.1,0.4,0.2,0.6,0.2c0.5,0,1-0.3,1.2-0.7c3.2-6.1,4.9-13,4.9-20C93,37.5,88.5,26.7,80.4,18.6z"/>
		</g>
	</g>
</g>
</svg>
