<?xml version="1.0" encoding="utf-8"?>
<!-- Generator: Adobe Illustrator 21.0.0, SVG Export Plug-In . SVG Version: 6.00 Build 0)  -->
<svg version="1.1" id="Capa_1" xmlns="http://www.w3.org/2000/svg" xmlns:xlink="http://www.w3.org/1999/xlink" x="0px" y="0px"
	 viewBox="0 0 100 100" style="enable-background:new 0 0 100 100;" xml:space="preserve">
<style type="text/css">
	.st0{fill:#F2F2F2;}
</style>
<g>
	<g>
		<path class="st0" d="M91.5,68.2V43.1c0-3-2.5-5.5-5.5-5.5H51.6v-0.6c0-0.8-0.3-1.6-0.8-2.2c0.4-0.5,0.6-1,0.7-1.6
			c1.4-0.8,2.3-2.3,2.3-4c0-0.8-0.2-1.5-0.6-2.2c0.4-0.7,0.6-1.4,0.6-2.2c0-1.7-0.9-3.1-2.3-4c0-0.2,0-0.3,0-0.5
			c0-2.3-1.8-4.3-4-4.6c-0.8-1.4-2.3-2.3-4-2.3c-0.2,0-0.4,0-0.6,0c-0.9-0.7-2.1-1.2-3.3-1.2c-0.2,0-0.3,0-0.5,0
			c-1-0.7-2.2-1.1-3.4-1.1c-1.2,0-2.4,0.4-3.4,1.1c-0.2,0-0.3,0-0.5,0c-1.2,0-2.3,0.4-3.2,1.1c-1.5,0.1-2.8,1-3.5,2.3
			c-2.3,0.3-4,2.3-4,4.6c0,0.2,0,0.3,0,0.5c-1.4,0.8-2.3,2.3-2.3,4c0,0.8,0.2,1.5,0.6,2.2c-0.4,0.7-0.6,1.4-0.6,2.2
			c0,1.7,0.9,3.2,2.3,4c0.1,0.3,0.2,0.6,0.3,0.9c-0.9,0.6-1.5,1.7-1.5,2.9v2.2c0,2,1.6,3.5,3.5,3.5h0.6l0.1,0.6
			c0.2,1.4,0.9,2.6,2,3.5l0.5,0.4v3.7c0,0.4-0.3,0.8-0.7,0.9l-9.8,3c-2.4,0.7-4.1,3-4.1,5.5v16.2c0,1.6,0.6,3.1,1.5,4.3h-3
			C9.2,80.8,8,82,8,83.5v2.8c0,1.5,1.2,2.7,2.7,2.7h78.1c1.5,0,2.7-1.2,2.7-2.7v-2.8c0-1.5-1.2-2.7-2.7-2.7H74.6l-1-7.1H86
			C89,73.7,91.5,71.2,91.5,68.2z M23.5,40.1c-0.5,0-0.9-0.4-0.9-0.9v-2.2c0-0.3,0.2-0.6,0.5-0.8l0.6,3.9H23.5z M23.7,32.5
			c0,0,0-0.1,0-0.1c0.1-0.6-0.3-1.2-0.9-1.4c-0.8-0.3-1.4-1.1-1.4-1.9c0-0.6,0.3-1.1,0.5-1.4c0.4-0.5,0.4-1.3,0-1.7
			c-0.2-0.3-0.5-0.7-0.5-1.4c0-0.9,0.6-1.7,1.5-2c0.4-0.1,0.7-0.3,0.8-0.7c0.2-0.3,0.2-0.7,0-1.1c-0.1-0.2-0.2-0.5-0.2-0.8
			c0-1.1,0.9-2,2-2c0.1,0,0.1,0,0.2,0c0.6,0,1.1-0.3,1.3-0.9c0.3-0.8,1-1.4,1.9-1.4c0,0,0.1,0,0.1,0c0.4,0,0.7-0.1,0.9-0.4
			c0.5-0.5,1.1-0.7,1.8-0.7c0.2,0,0.4,0,0.6,0.1c0.4,0.1,0.9,0,1.2-0.3c0.6-0.6,1.4-0.9,2.2-0.9c0.8,0,1.6,0.3,2.2,0.9
			c0.3,0.3,0.8,0.4,1.2,0.3c0.2,0,0.4-0.1,0.6-0.1c0.7,0,1.4,0.3,1.9,0.9c0.3,0.4,0.9,0.5,1.4,0.4c0.2-0.1,0.4-0.1,0.6-0.1
			c0.9,0,1.6,0.6,1.9,1.4c0.2,0.6,0.7,0.9,1.3,0.9c0.1,0,0.1,0,0.2,0c1.1,0,2,0.9,2,2c0,0.3-0.1,0.5-0.2,0.8c-0.1,0.3-0.1,0.7,0,1.1
			s0.5,0.6,0.8,0.7c0.9,0.2,1.5,1,1.5,2c0,0.6-0.3,1.1-0.5,1.4c-0.4,0.5-0.4,1.3,0,1.7c0.2,0.3,0.5,0.7,0.5,1.4
			c0,0.9-0.6,1.6-1.4,1.9c-0.6,0.2-0.9,0.8-0.9,1.4c0,0,0,0.1,0,0.1c0,0.4-0.3,0.7-0.7,0.8c0,0-1.3,0-1.3,0l-0.8-4.5
			c-0.1-0.7-0.7-1.1-1.4-1.1c-0.1,0-0.1,0-0.2,0l0,0c-0.7,0-1.3-0.4-1.7-0.9c-0.2-0.4-0.7-0.6-1.1-0.6c-0.4,0-0.8,0.2-1.1,0.6
			c-0.4,0.6-1,0.9-1.7,0.9c-0.7,0-1.3-0.3-1.7-0.9c-0.2-0.4-0.7-0.6-1.1-0.6c-0.4,0-0.8,0.2-1.1,0.6c-0.4,0.6-1,0.9-1.7,0.9
			c-0.7,0-1.3-0.3-1.7-0.9c-0.2-0.4-0.7-0.6-1.1-0.6c-0.4,0-0.8,0.2-1.1,0.6c-0.4,0.6-1,0.9-1.7,0.9l0,0c-0.1,0-0.1,0-0.2,0
			c-0.7-0.1-1.3,0.4-1.4,1.1l-0.8,4.5c0,0-1.2,0-1.3,0C24,33.3,23.7,32.9,23.7,32.5z M49,36.9v0.6h-0.7l0.2-1.4
			C48.8,36.3,49,36.6,49,36.9z M25.7,36h0.2c1.2,0,2.2-0.9,2.4-2l0.6-3.6c0.7-0.1,1.4-0.4,1.9-0.8c0.8,0.6,1.8,0.9,2.8,0.9
			c1,0,2-0.3,2.8-0.9c0.8,0.6,1.8,0.9,2.8,0.9c1,0,2-0.3,2.8-0.9c0.6,0.4,1.2,0.7,1.9,0.8l0.6,3.6c0.1,0.9,0.7,1.5,1.5,1.8l-0.3,1.7
			h-1.5c-3,0-5.5,2.5-5.5,5.5v5.8C38.4,49,38.2,49,37.9,49h-4.3c-0.5,0-0.9-0.2-1.3-0.5l-4.5-3.7c-0.6-0.5-1-1.2-1.1-1.9L25.7,36z
			 M26.8,54.3c1.5-0.5,2.5-1.8,2.5-3.4v-1.5l1.4,1.2c0.8,0.7,1.9,1.1,3,1.1h4.3c0.2,0,0.5,0,0.7-0.1V60c-0.8,0.1-1.5,0.2-2.3,0.2
			c-4.4,0-8.5-2-11.2-5.4L26.8,54.3z M14.8,60.3c0-1.4,0.9-2.6,2.2-3l5.5-1.7c3.2,4.5,8.3,7.2,13.8,7.2c0.8,0,1.6-0.1,2.3-0.2v5.5
			c0,3,2.5,5.5,5.5,5.5h5.7v7.1c0,0,0,0.1,0,0.1h-7.1v-1.5c0-3-2.5-5.5-5.5-5.5H23.2c0,0-0.1,0-0.1-0.1v-8.4c0-0.7-0.6-1.3-1.3-1.3
			c-0.7,0-1.3,0.6-1.3,1.3v8.4c0,1.5,1.2,2.7,2.7,2.7h8.5v4.4H19.1c-2.4,0-4.3-1.9-4.3-4.3V60.3z M40.1,79.3v1.5h-5.8v-4.4h2.9
			C38.8,76.5,40.1,77.7,40.1,79.3z M88.8,83.4C88.8,83.4,88.9,83.5,88.8,83.4l0.1,2.9c0,0,0,0.1-0.1,0.1H10.7c0,0-0.1,0-0.1-0.1
			v-2.8c0,0,0-0.1,0.1-0.1H88.8z M52.4,80.8C52.4,80.8,52.4,80.8,52.4,80.8l0-7.1h4.1l-1,7.1L52.4,80.8L52.4,80.8z M58.2,80.8
			l2.3-17c0.1-0.7,0.7-1.3,1.5-1.3h6.3c0.7,0,1.4,0.6,1.5,1.3l2.3,17H58.2z M73.4,71.1c-0.1,0-0.1,0-0.2,0l-1-7.6
			c-0.3-2-2-3.6-4.1-3.6h-6.3c-2,0-3.8,1.5-4.1,3.6l-1,7.6c-0.1,0-0.1,0-0.2,0H44.2c-1.6,0-2.9-1.3-2.9-2.9V43.1
			c0-1.6,1.3-2.9,2.9-2.9H86c1.6,0,2.9,1.3,2.9,2.9v25.1c0,1.6-1.3,2.9-2.9,2.9H73.4z"/>
	</g>
</g>
</svg>
