<?xml version="1.0" encoding="utf-8"?>
<!-- Generator: Adobe Illustrator 21.0.0, SVG Export Plug-In . SVG Version: 6.00 Build 0)  -->
<svg version="1.1" id="Capa_1" xmlns="http://www.w3.org/2000/svg" xmlns:xlink="http://www.w3.org/1999/xlink" x="0px" y="0px"
	 viewBox="0 0 100 100" style="enable-background:new 0 0 100 100;" xml:space="preserve">
<style type="text/css">
	.st0{fill:#F2F2F2;}
</style>
<g>
	<g>
		<path class="st0" d="M90.2,34.6h-7.7c-2.2-3.4-5.2-6.4-8.7-8.6c-3.4-2.2-7.3-3.6-11.3-4.2V8.4c0-0.8-0.6-1.4-1.4-1.4h-8.7H17.6
			c-0.8,0-1.4,0.6-1.4,1.4v31.9c0,0.8,0.6,1.4,1.4,1.4h13.1c-0.8,2.4-1.2,4.9-1.3,7.4H13.3c-0.8,0-1.4,0.6-1.4,1.4v34.9h-1.5
			C9.6,85.4,9,86,9,86.8v5.8c0,0.8,0.6,1.4,1.4,1.4h2.9h49.4h2.9c0.8,0,1.4-0.6,1.4-1.4v-5.8c0-0.8-0.6-1.4-1.4-1.4H64v-6.6
			c6.3-1.3,12.1-4.6,16.3-9.6h9.9c0.8,0,1.4-0.6,1.4-1.4v-8.7V35.9C91.6,35.2,91,34.6,90.2,34.6z M53.8,23.5V9.7h6V23c0,0,0,0,0,0
			v15.9h-6V23.5z M19,38.9V9.7h32.1v13.8v15.4H32.6H19z M14.6,51.8h16.1h30.6v25.9v7.7H14.6V51.8z M64.2,88.1v3.1h-1.5H13.3h-1.5
			v-3.1h1.5h49.4H64.2z M64,76.1V50.5c0-0.8-0.6-1.4-1.4-1.4H32.1c0.1-2.6,0.6-5,1.5-7.4h18.9h8.7c0.8,0,1.4-0.6,1.4-1.4V24.6
			c6.6,1.1,12.5,4.7,16.6,10h-6.3c-0.8,0-1.4,0.6-1.4,1.4v23.2v8.7c0,0.8,0.6,1.4,1.4,1.4h3.8C73.1,72.6,68.7,75,64,76.1z
			 M88.8,66.5h-9.2h-5.5v-6h14.7V66.5z M88.8,57.8H74.1V37.3h7.6c0,0,0,0,0,0c0,0,0,0,0,0h7.1V57.8z"/>
	</g>
</g>
</svg>
