<?xml version="1.0" encoding="utf-8"?>
<!-- Generator: Adobe Illustrator 21.0.2, SVG Export Plug-In . SVG Version: 6.00 Build 0)  -->
<svg version="1.1" id="Capa_1" xmlns="http://www.w3.org/2000/svg" xmlns:xlink="http://www.w3.org/1999/xlink" x="0px" y="0px"
	 viewBox="0 0 100 100" style="enable-background:new 0 0 100 100;" xml:space="preserve">
<style type="text/css">
	.st0{fill:none;stroke:#999999;stroke-miterlimit:10;}
	.st1{fill:#4795E2;}
</style>
<g>
	<circle class="st0" cx="50.5" cy="50" r="47.5"/>
	<g>
		<g>
			<path class="st1" d="M81,64.4h-1.8C79.1,64.3,79,64.1,79,64l1.3-1.3c0.4-0.4,0.4-1.1,0-1.5l-4.4-4.4c-0.2-0.2-0.5-0.3-0.8-0.3
				c1.6-0.9,2.8-2.6,2.8-4.5V25.2c0-2.8-2.3-5.2-5.2-5.2H25.2c-2.8,0-5.2,2.3-5.2,5.2V52c0,2.8,2.3,5.2,5.2,5.2h13.5l-3.9,7.2h-0.3
				h-1.5c-2,0-3.6,1.6-3.6,3.6c0,2,1.6,3.6,3.6,3.6h22.2c0,0.6,0.5,1,1,1H58c0.1,0.1,0.1,0.3,0.2,0.4l-1.3,1.3
				c-0.4,0.4-0.4,1.1,0,1.5l4.4,4.4c0.4,0.4,1.1,0.4,1.5,0L64,79c0.1,0.1,0.3,0.1,0.4,0.2V81c0,0.6,0.5,1,1,1h6.2c0.6,0,1-0.5,1-1
				v-1.8c0.1-0.1,0.3-0.1,0.4-0.2l1.3,1.3c0.4,0.4,1.1,0.4,1.5,0l4.4-4.4c0.4-0.4,0.4-1.1,0-1.5L79,73.1c0.1-0.1,0.1-0.3,0.2-0.4H81
				c0.6,0,1-0.5,1-1v-6.2C82,64.9,81.5,64.4,81,64.4z M22.1,25.2c0-1.7,1.4-3.1,3.1-3.1h47.5c1.7,0,3.1,1.4,3.1,3.1v21.7H22.1V25.2z
				 M25.2,55.1c-1.7,0-3.1-1.4-3.1-3.1v-3.1h53.7V52c0,1.7-1.4,3.1-3.1,3.1h-1h-6.2h-8H40.4H25.2z M74.4,56.9l-1.3,1.3
				C73,58.1,72.8,58,72.7,58v-0.8C73.3,57.2,73.9,57.1,74.4,56.9z M64.4,57.2V58c-0.1,0.1-0.3,0.1-0.4,0.2l-1-1H64.4z M60.9,57.2
				L60,58.1l-0.6-0.9H60.9z M55.1,69.6H32.9c-0.9,0-1.6-0.7-1.6-1.5c0-0.9,0.7-1.6,1.6-1.6h1.5h0.9h19.8V69.6z M37.1,64.4l3.9-7.2
				h15.9l1.6,2.4l-1.7,1.7c-0.4,0.4-0.4,1.1,0,1.5l1.3,1.3c-0.1,0.1-0.1,0.3-0.2,0.4h-1.8H37.1z M79.9,70.6h-1.5
				c-0.5,0-0.8,0.3-1,0.7c-0.2,0.5-0.4,1-0.6,1.5c-0.2,0.4-0.1,0.9,0.2,1.2l1.1,1.1l-2.9,2.9L74.1,77c-0.3-0.3-0.8-0.4-1.2-0.2
				c-0.5,0.3-1,0.5-1.5,0.6c-0.4,0.1-0.7,0.5-0.7,1v1.5h-4.1v-1.5c0-0.5-0.3-0.8-0.7-1c-0.5-0.2-1-0.4-1.5-0.6
				c-0.4-0.2-0.9-0.1-1.2,0.2L62,78.1l-2.9-2.9l1.1-1.1c0.3-0.3,0.4-0.8,0.2-1.2c-0.3-0.5-0.5-1-0.6-1.5c-0.1-0.4-0.5-0.7-1-0.7
				h-1.5v-4.1h1.5c0.5,0,0.8-0.3,1-0.7c0.2-0.5,0.4-1,0.6-1.5c0.2-0.4,0.1-0.9-0.2-1.2L59.1,62l2.9-2.9l1.1,1.1
				c0.3,0.3,0.8,0.4,1.2,0.2c0.5-0.3,1-0.5,1.5-0.6c0.4-0.1,0.7-0.5,0.7-1v-1.5h4.1v1.5c0,0.5,0.3,0.8,0.7,1c0.5,0.2,1,0.4,1.5,0.6
				c0.4,0.2,0.9,0.1,1.2-0.2l1.1-1.1l2.9,2.9L77,63.1c-0.3,0.3-0.4,0.8-0.2,1.2c0.3,0.5,0.5,1,0.6,1.5c0.1,0.4,0.5,0.7,1,0.7h1.5
				V70.6z"/>
		</g>
	</g>
</g>
</svg>
