<?xml version="1.0" encoding="utf-8"?>
<!-- Generator: Adobe Illustrator 21.0.2, SVG Export Plug-In . SVG Version: 6.00 Build 0)  -->
<svg version="1.1" id="Capa_1" xmlns="http://www.w3.org/2000/svg" xmlns:xlink="http://www.w3.org/1999/xlink" x="0px" y="0px"
	 viewBox="0 0 400 400" style="enable-background:new 0 0 400 400;" xml:space="preserve">
<style type="text/css">
	.st0{fill:#D1ECFF;}
	.st1{fill:none;stroke:#4795E2;stroke-width:9;stroke-miterlimit:10;}
	.st2{fill:none;stroke:#4795E2;stroke-width:7;stroke-miterlimit:10;}
	.st3{fill:#CCEAFF;}
	.st4{fill:#4795E2;}
</style>
<g>
	<g>
		<g>
			<g>
				<path class="st0" d="M326.3,295.3c0-3.6-0.1-7.2-0.1-10.8c-0.5,31.4-0.3,63.7,0,95.5l22.6-0.1c0.6-30,1.1-59.6,2.3-87.5
					c0.3-3.6,1-10.8,1.4-14.4c1-28.7,0.5-64.6-0.5-93.3c-0.5-14.4-4.4-25.1-4.4-25.1c-0.7-3.6-2.1-7.2-2.8-3.6
					c-0.3,7.2-0.1,25.1-1.4,25.1c-0.3,0-0.4-3.6-0.4-7.2c-1.4,0-4.2-10.7-4.3-14.3c-0.7-3.6-3-25.1-3.8-28.6
					c-1.2-10.7-5.9,21.6-6.7,35.9c-0.6,7.2-1.7,0-2.7,0c0.4,7.2-0.6,10.8-0.2,17.9c-0.1,0-0.2,1.3-0.2,3.5c-0.1,2.2-0.1,5.2-0.1,8.6
					c-0.1,6.7-0.1,14.8-0.1,20.1c0,0,0.4,3.6,0.4,14.3c0,3.6,0.4,3.6,0.7,3.6c-0.3,0-0.3,0-0.7,0c0.7,3.6,0,10.8,0.4,14.3
					c-0.3,0-0.3,0-0.7,0c0.7,7.2,0,14.3,0.4,21.5c-0.3,0-0.3,0-0.7,0c0,3.6,0,7.2-0.3,7.2c-0.3,0-0.3,0-0.7,0
					c-0.3,3.6,0.3,10.7-0.3,10.7c0.3,0,0.3,0,0.7,0c0,14.3-0.4,25.1-0.8,35.8c-0.8,16.6-1.1,35.7-1,55l30.3-0.2
					c-0.4-14-0.9-28.1-1.4-41.6c-0.1-3.6-0.8-7.1-1.4-3.6c-0.1-3.6-0.1-7.2-0.2-10.7c-0.1-7.2-1.1-3.6-1.2-10.7
					c-2.5-57.3-1.2-114.6-2.3-171.9c-0.3,14.3-1,25.1-0.6,39.4c-0.3,0-1,0-1,3.6c-0.3,21.5,0.6,46.6-0.6,57.3
					c-0.3,3.6-1.3,7.2-1.2,17.9c0-3.6-0.1-7.2-0.1-10.8c-0.3,0-1,0-1,0c-0.2,14.3-0.4,32.3-0.5,46.6c0,0-0.7,0-1,0l0.1,7.2
					c-2.3,7.2-2.5-32.2-3-50.2c-0.3,0-1,0-1.4,0l0.1,7.2l-0.7,0c-0.2-21.5-0.3-39.4-0.5-61c0,3.6,0.1,10.8,0.1,14.4
					c-0.3,0-0.7,0-0.7,3.6c-0.1-14.3,0.2-32.3-0.6-46.6c-0.4-3.6-1.4,0-1.7,10.8c0.1,10.8,0.1,17.9,0.2,28.7l-0.7,0
					c0-7.2,0.2-17.9-0.1-25.1c-0.4-3.6-1,7.2-1.4,3.6c0-3.6,0-7.2-0.4-10.8c0,10.8,0.5,25.1,0.2,35.9c-0.3,3.6-0.6,7.2-1.3,7.2
					c0.5,17.9-0.4,32.3-2,43.1C325.6,266.6,326.2,284.5,326.3,295.3z"/>
			</g>
		</g>
	</g>
	<g>
		<g>
			<g>
				<line class="st1" x1="106.5" y1="138.6" x2="153.8" y2="186"/>
			</g>
			<line class="st1" x1="107.3" y1="186.8" x2="155.5" y2="138.6"/>
		</g>
		<g>
			<g>
				<line class="st1" x1="230.7" y1="138.6" x2="278" y2="186"/>
			</g>
			<line class="st1" x1="231.6" y1="186.8" x2="279.8" y2="138.6"/>
		</g>
	</g>
	<g>
		<path class="st2" d="M278.6,239.9"/>
		<g>
			<g>
				<path class="st3" d="M252.4,271.9h14c9.6,0,17.4-7.8,17.4-17.4v-28h-48.8v28C235.1,264.1,242.9,271.9,252.4,271.9z"/>
			</g>
			<g>
				<path class="st4" d="M275.8,234.5v20c0,5.2-4.2,9.4-9.4,9.4h-14c-5.2,0-9.4-4.2-9.4-9.4v-20H275.8 M283.8,226.5h-48.8v28
					c0,9.6,7.8,17.4,17.4,17.4h14c9.6,0,17.4-7.8,17.4-17.4V226.5L283.8,226.5z"/>
			</g>
			<g>
				<path class="st4" d="M261.4,226.5h-2.6c-1.8,0-3.2,1.4-3.2,3.2V248c0,1.8,1.4,3.2,3.2,3.2h2.6c1.8,0,3.2-1.4,3.2-3.2v-18.2
					C264.6,228,263.2,226.5,261.4,226.5L261.4,226.5z"/>
			</g>
		</g>
		<g>
			<path class="st4" d="M283.8,226.5H106.5c-1.8,0-3.3,1.5-3.3,3.3v3.4c0,1.8,1.5,3.3,3.3,3.3h177.3V226.5L283.8,226.5z"/>
		</g>
	</g>
	<g>
		<polygon class="st3" points="346.6,86.2 275,86.2 275,25.7 		"/>
		<g>
			<g>
				<path class="st4" d="M267.8,18L347,89.8v283.9c0,4.4-3.6,8.1-8,8.1H50.2c-4.4,0-8-3.6-8-8.1V26.1c0-4.4,3.6-8.1,8-8.1H267.8
					 M271.2,9h-221c-9.4,0-17,7.6-17,17.1v347.6c0,9.4,7.6,17.1,17,17.1H339c9.4,0,17-7.6,17-17.1V85.8L271.2,9L271.2,9z"/>
			</g>
			<g>
				<path class="st4" d="M275.2,27.7l59.3,55.1h-54.7c-2.5,0-4.6-2.2-4.6-4.8V27.7 M268.3,9h-2.1v69c0,7.6,6.1,13.8,13.6,13.8H356
					v-1.2L268.3,9L268.3,9z"/>
			</g>
		</g>
	</g>
</g>
</svg>
