<?xml version="1.0" encoding="utf-8"?>
<!-- Generator: Adobe Illustrator 21.0.0, SVG Export Plug-In . SVG Version: 6.00 Build 0)  -->
<svg version="1.1" id="Capa_1" xmlns="http://www.w3.org/2000/svg" xmlns:xlink="http://www.w3.org/1999/xlink" x="0px" y="0px"
	 viewBox="0 0 322 245" style="enable-background:new 0 0 322 245;" xml:space="preserve">
<style type="text/css">
	.st0{fill-rule:evenodd;clip-rule:evenodd;fill:#E3C2B1;}
	.st1{fill-rule:evenodd;clip-rule:evenodd;fill:#6FA190;}
	.st2{fill-rule:evenodd;clip-rule:evenodd;fill:#4A6F64;}
	.st3{fill-rule:evenodd;clip-rule:evenodd;fill:#E2C4B3;}
	.st4{fill-rule:evenodd;clip-rule:evenodd;fill:#598276;}
	.st5{fill-rule:evenodd;clip-rule:evenodd;fill:#3B434A;}
	.st6{fill-rule:evenodd;clip-rule:evenodd;fill:#343B40;}
	.st7{fill-rule:evenodd;clip-rule:evenodd;fill:#F1CE9E;}
	.st8{fill-rule:evenodd;clip-rule:evenodd;fill:#F0D0BF;}
	.st9{fill-rule:evenodd;clip-rule:evenodd;fill:#E8C6B5;}
	.st10{fill-rule:evenodd;clip-rule:evenodd;fill:#49535A;}
	.st11{fill-rule:evenodd;clip-rule:evenodd;fill:#4C545B;}
	.st12{fill-rule:evenodd;clip-rule:evenodd;fill:#434C54;}
	.st13{fill-rule:evenodd;clip-rule:evenodd;fill:#689686;}
	.st14{fill-rule:evenodd;clip-rule:evenodd;fill:#6D6E70;}
	.st15{fill-rule:evenodd;clip-rule:evenodd;fill:#A5A7A9;}
	.st16{clip-path:url(#XMLID_48_);}
	.st17{fill-rule:evenodd;clip-rule:evenodd;fill:#808082;}
	.st18{fill-rule:evenodd;clip-rule:evenodd;fill:#4E4E51;}
	.st19{fill-rule:evenodd;clip-rule:evenodd;fill:#616164;}
	.st20{fill-rule:evenodd;clip-rule:evenodd;fill:#424243;}
	.st21{fill:#666666;}
	.st22{fill-rule:evenodd;clip-rule:evenodd;fill:#E5E6E7;}
	.st23{fill-rule:evenodd;clip-rule:evenodd;fill:#D0B4A7;}
	.st24{fill-rule:evenodd;clip-rule:evenodd;fill:#8D5342;}
	.st25{fill-rule:evenodd;clip-rule:evenodd;fill:#854E3C;}
	.st26{fill:#854E3C;}
	.st27{fill-rule:evenodd;clip-rule:evenodd;fill:#59595B;}
	.st28{fill-rule:evenodd;clip-rule:evenodd;fill:#C19781;}
	.st29{fill-rule:evenodd;clip-rule:evenodd;fill:#444C54;}
	.st30{fill-rule:evenodd;clip-rule:evenodd;fill:#7B8188;}
	.st31{fill-rule:evenodd;clip-rule:evenodd;fill:#4A5054;}
	.st32{fill-rule:evenodd;clip-rule:evenodd;fill:#CEE0ED;}
	.st33{fill-rule:evenodd;clip-rule:evenodd;fill:#935B4A;}
	.st34{fill-rule:evenodd;clip-rule:evenodd;fill:#3F3F40;}
	.st35{fill-rule:evenodd;clip-rule:evenodd;fill:#6C737B;}
	.st36{fill-rule:evenodd;clip-rule:evenodd;fill:#676F78;}
	.st37{fill-rule:evenodd;clip-rule:evenodd;fill:#5C6369;}
	.st38{fill-rule:evenodd;clip-rule:evenodd;fill:#535C65;}
	.st39{fill-rule:evenodd;clip-rule:evenodd;fill:#B7907C;}
	.st40{fill-rule:evenodd;clip-rule:evenodd;fill:#5A6269;}
	.st41{fill-rule:evenodd;clip-rule:evenodd;fill:#5A5B5D;}
	.st42{fill-rule:evenodd;clip-rule:evenodd;fill:#E6E6E6;}
	.st43{fill-rule:evenodd;clip-rule:evenodd;fill:#D0D0D0;}
	.st44{fill:#333333;}
	.st45{fill-rule:evenodd;clip-rule:evenodd;fill:#4D4D4D;}
</style>
<g id="character">
	<path id="XMLID_102_" class="st0" d="M144.4,133.4c1.2,3.2,5.9,14.1,18.1,27.8c8.6,9.7,40,32.1,42.8,37.7c2,4,4.8,5.4,5.2,5.4
		c1.5,0,15,2.1,15.8,2.5c0.5,0.3,4.7,3.4,8.2,5.7c2,1.7,4.2,3.5,4.9,3.4c0.7-0.1,0.7-0.8,0.6-1.4c0.1,0,0.2,0,0.2-0.1
		c0.3,0.4,0.8,0.8,1.1,0.8c0.7,0,1.4-0.2,1.1-0.8c-0.1-0.2-0.4-0.6-0.6-0.9c0,0,0.1-0.1,0.1-0.1c0.2,0.1,0.5,0.2,0.8,0
		c0.8-0.5-3.5-5-3.5-5c-3.5-4.6-9.3-11.5-9.3-11.5l-18.7-2.6c0,0-39.6-40.2-41.1-42.1c-1.5-1.9-14.4-28.6-14.4-28.6L144.4,133.4z"/>
	<path id="XMLID_101_" class="st1" d="M146.8,104.3c1.6,1.6,21.2,38.7,20.1,39.3c-1,0.6-13.4,10.5-14.1,9.3
		c-0.7-1.2-18.5-35.7-18.5-35.7L146.8,104.3z"/>
	<path id="XMLID_100_" class="st2" d="M143.9,96.2c0.3-0.4,4.4-3.8,4.4-3.8s5.9,10.6,5.2,11.4c-0.7,0.7-6.8,9-7,7.9
		C146.2,110.6,143.9,96.2,143.9,96.2z"/>
	<path id="XMLID_99_" class="st3" d="M155.4,80.5c-0.8,0.6-7.1,9.2-8.6,18.2c-1.5,9.1-5.4,6.6-5.9,5.7l-11.5-22.2l13.2-15.1
		L155.4,80.5z"/>
	<path id="XMLID_98_" class="st4" d="M125.6,78.3c1-0.5,10-5.9,10.4-5.1c0.5,0.9,16.1,29.7,15.7,30.5c-0.4,0.8-4.6,14.6-4.8,13.5
		C146.7,116.1,125.6,78.3,125.6,78.3z"/>
	<path id="XMLID_97_" class="st5" d="M104.9,183.5c6.7-2.4,38.6-22.9,45.8-18.1c7.2,4.8,9.9,19.4,7.4,22.6c-2.5,3.2-46.3,16-51.7,12
		C101,196,104.9,183.5,104.9,183.5z"/>
	<path id="XMLID_96_" class="st6" d="M118.9,187.9c3.2-1.7,19.4-8.5,19.4-8.5l2.6-2.9l-0.5,6l0.1,4.1L118.9,187.9z"/>
	<path id="XMLID_95_" class="st7" d="M140.2,128.8c-0.7,1.3-7.2,11.7-13.7,29.1c-6.5,17.3-4.7,36.8-6,36.8s-43,2.9-43,2.9
		s6.7-42.7,16.2-60c9.5-17.3,15.7-26.9,17.2-25.9C112.3,112.8,140.2,128.8,140.2,128.8z"/>
	<path id="XMLID_94_" class="st8" d="M223.6,203c1.8,1.1,14.1,5.6,14,6.2c-0.2,1.1-0.8,1.8-2.1,2c-1.3,0.2-8.4-2.2-8-2.8
		C227.8,207.8,223.6,203,223.6,203z"/>
	<path id="XMLID_93_" class="st8" d="M140.2,139.8c1.2,3.2,5.9,14.1,18.1,27.8c8.6,9.7,40,32.1,42.8,37.7c2,4,4.8,5.4,5.2,5.4
		c1.5,0,15,2.1,15.8,2.5c0.3,0.1,1.7,1.2,3.5,2.5l0,0c1.4,1,3.1,2.2,4.6,3.1c2.3,1.5,4.7,3.1,5.3,3.2c0.9,0.2,1.4,0,1.3-0.7
		c0.1,0,0.2,0.1,0.3,0.1c1,0.2,1.5-0.1,1.2-1.1c0.8,0,1.1-0.4,0.6-1.5c-0.1-0.2-0.2-0.4-0.5-0.7c0-0.2-0.1-0.5-0.2-0.8
		c-0.4-0.9-3.7-4-6.1-6.3c-3.1-3.9-6.3-7.8-6.3-7.8l-18.7-2.6c0,0-39.6-40.2-41.1-42.1c-1.5-1.9-14.4-28.6-14.4-28.6L140.2,139.8z"
		/>
	<path id="XMLID_92_" class="st9" d="M146.1,151.3c2.8,4.5,6.8,10.1,12.2,16.2c8.6,9.7,40,32.1,42.8,37.7c2,4,4.8,5.4,5.2,5.4
		c1.5,0,15,2.1,15.8,2.5c0.3,0.1,1.7,1.2,3.5,2.5l0,0c1.4,1,3.1,2.2,4.6,3.1c2.3,1.5,4.7,3.1,5.3,3.2c0.5,0.1,0.9,0.1,1.1-0.1
		c-0.2,0-0.4-0.1-0.5-0.1c-0.7-0.3-13.4-9.4-13.4-9.4s-13.3-2-16.1-3.3s-4.4-5.7-4.4-5.7s-41.4-37-43.4-39.5
		c-2-2.5-9.5-17.8-9.5-17.8L146.1,151.3z"/>
	<path id="XMLID_91_" class="st5" d="M121.5,210.5c6.7,14.4,21.8,17.2,34.1,8.7c11.2-7.8,19.3-14.4,6.6-20.1
		C149.4,193.3,121.5,210.5,121.5,210.5z"/>
	<path id="XMLID_90_" class="st10" d="M85.2,190.1c5-1.3,75.2-14,85.7-11.1c10.5,2.9,14.7,13,13.7,20.2c-1,7.2-34.1,13.1-46,16.8
		c-11.9,3.7-35.6,12.8-53.2,9.9C69,223.1,72.8,189.7,85.2,190.1z"/>
	<path id="XMLID_89_" class="st11" d="M97.4,187.7c21.8-3.9,65.5-11,73.6-8.8c7,1.9,11.3,7.1,13,12.5c-17.1-13.7-71.5-1.2-86.8,3.1
		C97.1,194.6,97.2,191.1,97.4,187.7z"/>
	<path id="XMLID_88_" class="st12" d="M82.5,202.5c0,0,3,9,11.1,9.3c3.5,0.1,18.2-2.8,33.9-5.8c19.3-3.8,40.1-7.9,42.8-7
		c4.8,1.6,6.9,6,6.9,6l1.3-0.7c0,0-2.3-5.1-7.8-6.9c-3-1-24,3.1-43.5,6.9c-15.6,3.1-30.2,5.9-33.6,5.8c-7.1-0.2-9.8-8.3-9.8-8.3
		L82.5,202.5z"/>
	<path id="XMLID_87_" class="st1" d="M119.8,78c1.4,0.1,11.8,2.1,11.8,2.1s17.5,42.3,18.8,45.5c1.2,3.2,11.3,21.2,9.6,21.5
		c-1.7,0.3-21.5,14.3-21.5,12.7s-4.5-22.1-4.5-22.1s-6.2,4.3-17.7,20.5c-11.4,16.3-2.3,27.4-5.2,27.2c-1.4-0.1-5.8,10.2-13,16
		c-8.4,6.7-19.9,8.9-23.6,6.6c-6.7-4.4-13.9-6.6-13.9-6.6s12.6-38.9,13.6-40.5c1-1.6,21.9-52,29.9-62.4C112.1,88,119.8,78,119.8,78z
		"/>
	<path id="XMLID_86_" class="st13" d="M119.8,78c1,0.1,6.8,1.2,9.9,1.8c0.5,2.1,8.1,13.9,7.4,13.5c-1.8-0.9-13.3-12.3-18.2-6.2
		c-9.2,11.7-35.8,72.1-40.7,82.1c-5.1,10.3-11.5,21-15.5,25.7c3.6-11.1,10.8-32.9,11.5-34.1c1-1.6,21.9-52,29.9-62.4
		C112.1,88,119.8,78,119.8,78z"/>
	<path id="XMLID_85_" class="st13" d="M147.6,154.7c-4.8,3.1-9.2,5.8-9.2,5c0-1.6-4.5-22.1-4.5-22.1s-5.6,4.9-17,21.1
		c-11.4,16.3-3.5,26.7-5.3,26.7c-1.8,0-2.7,4.2-5.3,6.3c-1.4-3.9-3.3-8.6-2.5-18.8c0.8-10.2,12.4-21.5,16.7-32.6
		c4.3-11.1,6.5-28.5,6.5-28.5s16.7,38.5,17.5,40.8C145,153.5,146.1,154.2,147.6,154.7z"/>
	<path id="XMLID_84_" class="st13" d="M123,142.8c0,0-11.8,6.9-13.4,6.6c-1.6-0.3-5.2,0.3-5.2,0.3l-24.6,10.5l1.6-6.9
		c0,0,41.7-15.3,41-15.5C121.6,137.5,123,142.8,123,142.8z"/>
	<path id="XMLID_83_" class="st14" d="M136.5,223.5c8.5,2,50.8,9.3,58-5.9c1.8-3.9-0.8-15-7.3-17.6c-6.5-2.6-16.7,1.5-22.9,2.8
		c-6.3,1.3-7.5,1.6-17.4,0.9C125.9,202.1,130,221.9,136.5,223.5z"/>
	<path id="XMLID_82_" class="st15" d="M136.8,221.9c-1.4-0.3-2.5-1.9-3.1-3.1c-0.9-1.8-1.2-4-0.9-6.1c0.4-2.3,1.6-4.2,3.4-5.4
		c2.9-2,7-2.2,10.4-2c3.9,0.3,8.1,0.6,12.1,0.2c1.9-0.2,3.9-0.6,5.8-1c6.1-1.2,16.2-5.2,22.1-2.9c0.3,0.1,0.6,0.3,0.9,0.4
		c1.8,1.1,3.2,2.9,4.2,4.9c0.9,1.8,1.5,3.9,1.8,5.9c0.1,1.2,0.2,3-0.3,4.1c-3.9,8.3-20.6,8.7-28,8.5c-5.7-0.1-11.5-0.7-17.1-1.5
		C144.3,223.3,140.5,222.7,136.8,221.9z"/>
	<g id="XMLID_61_">
		<defs>
			<path id="XMLID_62_" d="M136.8,221.9c-1.4-0.3-2.5-1.9-3.1-3.1c-0.9-1.8-1.2-4-0.9-6.1c0.4-2.3,1.6-4.2,3.4-5.4
				c2.9-2,7-2.2,10.4-2c3.9,0.3,8.1,0.6,12.1,0.2c1.9-0.2,3.9-0.6,5.8-1c6.1-1.2,16.2-5.2,22.1-2.9c0.3,0.1,0.6,0.3,0.9,0.4
				c1.8,1.1,3.2,2.9,4.2,4.9c0.9,1.8,1.5,3.9,1.8,5.9c0.1,1.2,0.2,3-0.3,4.1c-3.9,8.3-20.6,8.7-28,8.5c-5.7-0.1-11.5-0.7-17.1-1.5
				C144.3,223.3,140.5,222.7,136.8,221.9z"/>
		</defs>
		<clipPath id="XMLID_48_">
			<use xlink:href="#XMLID_62_"  style="overflow:visible;"/>
		</clipPath>
		<g id="XMLID_63_" class="st16">
			<g id="XMLID_64_">
				<rect id="XMLID_81_" x="190.6" y="196.2" class="st17" width="0.9" height="33.7"/>
				<rect id="XMLID_80_" x="186.6" y="196.2" class="st17" width="0.9" height="33.7"/>
				<rect id="XMLID_79_" x="182.6" y="196.2" class="st17" width="0.9" height="33.7"/>
				<rect id="XMLID_78_" x="178.6" y="196.2" class="st17" width="0.9" height="33.7"/>
				<rect id="XMLID_77_" x="174.6" y="196.2" class="st17" width="0.9" height="33.7"/>
				<rect id="XMLID_76_" x="170.7" y="196.2" class="st17" width="0.9" height="33.7"/>
				<rect id="XMLID_75_" x="166.7" y="196.2" class="st17" width="0.9" height="33.7"/>
				<rect id="XMLID_74_" x="162.7" y="196.2" class="st17" width="0.9" height="33.7"/>
				<rect id="XMLID_73_" x="158.7" y="196.2" class="st17" width="0.9" height="33.7"/>
				<rect id="XMLID_70_" x="154.7" y="196.2" class="st17" width="0.9" height="33.7"/>
				<rect id="XMLID_69_" x="150.8" y="196.2" class="st17" width="0.9" height="33.7"/>
				<rect id="XMLID_68_" x="146.8" y="196.2" class="st17" width="0.9" height="33.7"/>
				<rect id="XMLID_67_" x="142.8" y="196.2" class="st17" width="0.9" height="33.7"/>
				<rect id="XMLID_66_" x="138.8" y="196.2" class="st17" width="0.9" height="33.7"/>
				<rect id="XMLID_65_" x="134.8" y="196.2" class="st17" width="0.9" height="33.7"/>
			</g>
		</g>
	</g>
	<path id="XMLID_59_" class="st18" d="M105.7,86.6c17.2-2,16.2-8.7,31.2,6.4c-1.1-8-0.4-11.5-7.4-16.7c-2.6-1.9-23.3,1.6-23.3,1.6
		L105.7,86.6z"/>
	<path id="XMLID_58_" class="st19" d="M130.8,128.2c0,0-12.4,5.6-25.7,11.7c-13.3,6.1-40.9,11.2-40.9,11.2l1.3,13.6l67.4-29.7
		L130.8,128.2z"/>
	<path id="XMLID_157_" class="st20" d="M281.7,225.2l1.5,0.6c0.1,0.1,0.3,0.1,0.4,0.1l25-75c-0.2-0.3-0.4-0.5-0.6-0.6
		c-0.6-0.2-0.6-0.2-1.2-0.5L281.7,225.2z"/>
	<g id="XMLID_123_">
		
			<rect id="XMLID_122_" x="275.1" y="222.2" transform="matrix(-1 3.713127e-07 -3.713127e-07 -1 553.9194 444.8597)" class="st20" width="3.8" height="0.4"/>
		
			<rect id="XMLID_124_" x="270.4" y="222.2" transform="matrix(-1 3.713151e-07 -3.713151e-07 -1 544.5994 444.8597)" class="st20" width="3.8" height="0.4"/>
		
			<rect id="XMLID_125_" x="265.8" y="222.2" transform="matrix(-1 3.713156e-07 -3.713156e-07 -1 535.2793 444.8597)" class="st20" width="3.8" height="0.4"/>
		
			<rect id="XMLID_126_" x="261.1" y="222.2" transform="matrix(-1 3.713156e-07 -3.713156e-07 -1 525.9592 444.8597)" class="st20" width="3.8" height="0.4"/>
		
			<rect id="XMLID_127_" x="256.4" y="222.2" transform="matrix(-1 3.713127e-07 -3.713127e-07 -1 516.6391 444.8597)" class="st20" width="3.8" height="0.4"/>
		
			<rect id="XMLID_128_" x="251.8" y="222.2" transform="matrix(-1 3.713151e-07 -3.713151e-07 -1 507.319 444.8597)" class="st20" width="3.8" height="0.4"/>
		
			<rect id="XMLID_129_" x="247.1" y="222.2" transform="matrix(-1 3.713151e-07 -3.713151e-07 -1 497.9988 444.8598)" class="st20" width="3.8" height="0.4"/>
		
			<rect id="XMLID_130_" x="242.5" y="222.2" transform="matrix(-1 3.713146e-07 -3.713146e-07 -1 488.6788 444.8598)" class="st20" width="3.8" height="0.4"/>
		
			<rect id="XMLID_131_" x="237.8" y="222.2" transform="matrix(-1 3.713156e-07 -3.713156e-07 -1 479.3587 444.8598)" class="st20" width="3.8" height="0.4"/>
	</g>
	<path id="XMLID_56_" class="st18" d="M215.6,222.5l67.8,0c1,0,1.9,0.9,1.9,2l0,0c0,1.1-0.8,2-1.9,2l-67.8,0c-0.5,0-0.9-0.2-1.2-0.5
		l0,0C213.1,224.8,213.9,222.5,215.6,222.5z"/>
	
		<rect id="XMLID_104_" x="236.6" y="223.3" transform="matrix(-1 3.713147e-07 -3.713147e-07 -1 498.9672 448.6183)" class="st21" width="25.9" height="2.1"/>
	<path id="XMLID_55_" class="st22" d="M189.1,94.9c-0.3,0.3-0.7,1.5-1.3,1.5c-0.6,0.1-6.1-4-6.3-4.8c-0.2-0.7,0.7-2.7,0.7-2.7
		L189.1,94.9z"/>
	<path id="XMLID_54_" class="st8" d="M199.5,42.8c2.5,7.7,6.2,21.5,5.8,22.6c-0.5,1.1-4.7,4.6-6,6.5c-1.3,2-1.7,3.8-1.7,3.8
		s3.8,14.8,3.3,16.1c-0.5,1.2-8.4,1.6-8.4,1.6c-2.4,1.8-2.1,4.5-2.9,5.5c-0.3,0.3-1.6,0.5-2,0.5c0,0-1,1.5-1.5,1.8
		c-0.9,0.6-3.1-0.8-3.7,0.3c-1.9,3.1-6.9,3.7-10.4,2.9c-9.2-2.1-21-15.4-29.6-27.3c-3.6-5-6.7-9.8-8.8-13.3
		c-1.2-2,1.4-33.6,4.8-36.6c3.5-3,49.3-4.2,50.7-3.5C190.5,24.5,199.5,42.8,199.5,42.8z"/>
	<path id="XMLID_53_" class="st23" d="M159.4,56.3c0.4,0.2,31.7,15.7,31.7,15.7s-2.1,9.6-1.9,11.8c0.2,2.2,2.4,3.4,3.7,1.7
		c1.3-1.6,5.2-14.5,5.2-14.5l-38.8-17.5L159.4,56.3z"/>
	<path id="XMLID_52_" class="st24" d="M205.5,62.6c1,0.7,1.5,0.9,1,2.3c-0.5,1.4-1.6,2.4-3,1.8c-1.4-0.6-10.5-3.5-12.4-3.4
		c-1.9,0.1-5,0.9-4.8-0.5c0.2-1.3,1.2-2.2,3-3C192.9,58.3,203.3,61.1,205.5,62.6z"/>
	<path id="XMLID_51_" class="st25" d="M206.1,65.7c-0.6,0.9-1.5,1.4-2.5,0.9c-1.4-0.6-10.6-3.5-12.4-3.4c-1.3,0.1-3.2,0.5-4.2,0.2
		c1.3-0.6,3.3-1.3,5.2-1.3c3.3,0.1,10.1,3.6,12.2,3.7C205,66,205.6,65.9,206.1,65.7z"/>
	<path id="XMLID_50_" class="st24" d="M143.3,20.4c26.7-22.3,63.2,11.4,76.4,4.1c-12.6,22.7-38.1,20.6-53.8,13.4
		c0,0-3.1,9.6-5.5,19.1c-2.4,9.5-1.1,17.3-1.9,15.9c-5.8-10.7-2.5-14.6-4.8-20.2c-1.7-4.1-3.7-11.6-10.8-7.4
		c-5.8,3.4-3.6,12.3-2.1,18.8c-1.2,5-0.5,10.2-0.5,10.2c-6.1-2.6-8.1-10.2-9.6-17.6C126.9,37.9,132.2,21.9,143.3,20.4z"/>
	<path id="XMLID_49_" class="st25" d="M139.1,54.7c0.2,3.1,1,6.5,1.7,9.3c-1.2,5-0.5,10.2-0.5,10.2c-6.1-2.6-8.1-10.2-9.6-17.6
		c-0.5-2.3-0.8-4.6-1-6.8c1.2,5.7,2.4,11.1,2.9,12c1.3,2.1,0,0.4-0.1-4.3c-0.1-4.7-0.5-12.8-0.5-12.8s0,1.4,0.3,4
		c0.3,2.6,4.1,15.2,4.6,16.4c0.5,1.2-0.2-3-1-12.7c-0.8-9.8,0.9-14,0.9-14s-0.1,4.6,1.2,11.6C138.4,51.6,138.8,53.2,139.1,54.7z"/>
	<path id="XMLID_112_" class="st26" d="M160.5,42.3c3.1-9.3,3.1-9.3,3.1-9.3s14.9-0.8,15.6-1c0.7-0.2-3.8,2.6-4.5,2.6
		c-0.7,0,5.1,1.1,12.1,0.4c7-0.7,11.3-2.5,12-3c0.7-0.5-6.3,4.7-8.3,5.3c-2,0.6,7.1-0.6,16.7-4.4c9-3.6,11.9-7.3,12.1-7.7
		c-3,5.2-6.8,9.3-11,12.5c5.4-1.3,8.6-3.4,8.6-3.4s-0.7,1.6-5.1,5.1s-9.1,4-9.1,4s9.5-0.5,10-0.7c0.5-0.2-10.9,5.5-20.3,5.1
		c-3.9-0.2-7.3-0.8-9.9-1.6c-6.7,0.1-13-1.2-18.1-3.5c0,0-1.6,4.8-4,14.3c-2.1,8.1-1.4,15.1-1.6,16l-0.1,0.2h0
		C158.7,73.2,157.5,51.6,160.5,42.3z"/>
	<path id="XMLID_47_" class="st27" d="M202.7,69.5c-2.5,6.3-6.5,18.6-11.5,17.4c-0.9-0.2-1.4-0.8-1.7-2.1
		c-0.5-2.1,2.9-13.4,2.9-13.4L151.8,52l0.6-2.4C167.1,55.3,187.4,62.2,202.7,69.5z"/>
	<path id="XMLID_46_" class="st8" d="M154.6,48.7c0,0-2.1-5.4-6.2-5.9c-4.1-0.5-9.4,1.4-9.9,2.6c-0.5,1.2-0.9,15.2,0.7,16.9
		c1.6,1.7,7.4,7.5,9.7,6.3c2.3-1.2,5.4-6.7,5.4-6.7L154.6,48.7z"/>
	<path id="XMLID_45_" class="st28" d="M151.3,49.9c0.3-2.5-3.3-4-6.9-3.4c-5.3,0.9-3.2,12-0.6,15.1c1.5,1.7,4.3,4.2,5.5,2.7
		c1.3-1.5,0-5.3,0-5.3s-2.1-2.2-1.4-3.5c0.7-1.2,2.5,0.5,2.9-0.6C151.2,53.8,151.3,49.9,151.3,49.9z"/>
	<path id="XMLID_44_" class="st10" d="M119.9,81.5c-1.6-1.5-13.1-8.1-21.5-8.9c-8.5-0.8-20.5,11.2-33.2,26.1
		c-12.7,14.9-31.6,48.4-31.8,56.4c-0.2,8,25.9,51.1,35.8,20.2C79.1,144.5,119.9,81.5,119.9,81.5z"/>
	<path id="XMLID_43_" class="st29" d="M119.9,81.5c-0.7-0.6-2.8-2-5.8-3.5c-3.7,7.9-13.4,24.3-19.9,34.2
		c-8.2,12.5-26.7,56.3-32.3,61.6c-5.6,5.3-14.9,2.3-19.5-5.5c-2.8-4.7-6.5-9.3-8.9-12.1c1.4,8.5,18.6,36.6,29.8,28.7
		c1.2-1.4,2.5-2.9,3.7-4.4c0.8-1.4,1.5-3.1,2.2-5.2C79.1,144.5,119.9,81.5,119.9,81.5z"/>
	<path id="XMLID_42_" class="st12" d="M119.9,81.5c-1-0.9-5.8-3.8-11.3-6.1c-3.2-0.3-7-0.4-10.8-0.2c-11.1,0.6-15.9,5.5-19.1,7.8
		s-11.8,8.9-12,10.7c-0.2,1.9,0.2,3.1,3.2,2.4c2.9-0.7,17.5-12,24.6-13.5c7.1-1.5,19.4,1.4,20.7,1.4c0.7,0,2.2-0.2,3.6-0.7
		C119.4,82.1,119.9,81.5,119.9,81.5z"/>
	<path id="XMLID_41_" class="st30" d="M65.1,98.7c-3.7,1.1-19.4,2.3-26.6,11.3c-7.2,9.1-16.9,27.2-14.7,33.9
		c2.2,6.7,11.4,10.4,13.2,7.5C38.8,148.4,65.1,98.7,65.1,98.7z"/>
	<path id="XMLID_40_" class="st31" d="M51.6,101.8c0,0-6.2,0.5-5.1,3.4c1.1,2.9,11.3,7.1,13.2,5.3c1.9-1.8,0.5-5.5-1.6-7.1
		C56,101.9,51.6,101.8,51.6,101.8z"/>
	<path id="XMLID_39_" class="st30" d="M66.9,95.1c1.8-0.9,16.3-14.7,26.2-15.5c9.9-0.8,19,2.6,23.9,2.5c4.8-0.1,10.9-5.1,8.5-9.1
		c-2.5-4-13.6-4-32-0.8C61.7,77.8,65.1,96,66.9,95.1z"/>
	<path id="XMLID_38_" class="st32" d="M200.5,70.4c0.6,0.2,1.2,0.5,1.6,0.7c-1,2.6-2.2,5.9-3.6,8.7c-1.3,2.7-2.7,5-4.3,6.2
		c-0.4,0-0.8,0-1.1,0c-1.4,0-2.2-0.7-2.1-2.6c0.2-1.9,3.6-11.9,4.2-13.2c0.6-1.4,1.4-1.4,1.4-1.4S198.8,69.7,200.5,70.4z"/>
	<path id="XMLID_37_" class="st33" d="M145.3,18.8c17.8-12.8,39.3-2.7,55.5,3.2c-12.6-1-24.5-4.5-24.3-4.5
		c1.2,0.4,11.4,5.4,18.6,6.9c7.1,1.5,14.4,2.1,14.4,2.1s-3.6,2.2-13.6,1c-1.6-0.2-3.2-0.5-4.7-0.7c-5.7-1.1-10.7-2.7-12.8-3.2
		c-0.9-0.2-1.2-0.2-0.9,0c1.3,1.1,12.2,6.4,11.3,6.3c-8.8-1.2-13.9-3.7-18.6-6C163.8,20.6,158.4,17.6,145.3,18.8z"/>
	<path id="XMLID_36_" class="st3" d="M140.1,70c0-1.8,0.2-3.9,0.7-6c0,0,0-0.1,0-0.1c1.7,1.6,4.1,3.7,6,4.5c0,0-1.8,6.6,0.3,10.5
		c4.6,8.4,20.1,26.8,32.1,25c-1.3,0.9-5.3,1-7.3,0.5c-6.5-1.5-14.2-8.6-21.3-16.8c-2.9-3.4-5.8-7.1-8.3-10.6c-0.7-1-1.4-2-2.1-2.9
		C140.3,74.2,140,72.4,140.1,70z"/>
	<path id="XMLID_35_" class="st3" d="M200.9,91.8c-0.5,1.2-8.4,1.6-8.4,1.6c-0.5-0.7-0.8-5.6-0.8-5.6s1.6,2.7,2.2,3.4
		C194.6,91.9,200.9,91.8,200.9,91.8z"/>
	<path id="XMLID_34_" class="st34" d="M136.5,90.2c0.1,0.9,0.2,1.8,0.4,2.8c-1.6-1.6-3.1-3-4.3-4.2c-0.7-0.7-1.4-1.3-2.1-1.8
		c-5.2-4.1-7.9-4.2-12.1-3.1c0.7-1.2,1.2-1.9,1.4-2.2c0.2-0.1,0.4-0.1,0.5-0.2c1.1,0,2.2,0,3.1,0.1c1.9,0.2,3.5,0.7,4.8,1.3
		c0.9,0.5,1.8,1,2.5,1.6c0.9,0.7,1.8,1.6,2.6,2.4c0.6,0.6,1.2,1.2,1.9,1.9C135.6,89.3,136.1,89.7,136.5,90.2z"/>
	<path id="XMLID_33_" class="st34" d="M109.6,139.9c-0.2,0.1-4.2,1.9-4.4,1.8c-0.2-0.2-1.7-1.2-1.7-1.2l-0.5,0.2l6.5-6.5l20.4-9.2
		l0.4,1.3l0.1,0.4c0,0-9.8,8.1-10.9,8.4C118.4,135.4,109.6,139.9,109.6,139.9z"/>
	<path id="XMLID_32_" class="st18" d="M130.2,126.3l0.6,1.8l2.4,8c0,0-18.2,8.4-18.9,8.8c-0.7,0.4-8.1,1.8-8.1,1.8l-2.7-6.2l6.6-5.2
		C116.7,132.5,129.4,126.7,130.2,126.3z"/>
	<path id="XMLID_31_" class="st30" d="M62.4,118.5c-0.5,1.7-18.5,29.7-18.8,32.7c-0.2,2.9,2.2,12.1,9.7,15.3
		c7.5,3.2,14.5,2.4,16.2-0.9c1.6-3.4,17.2-31.6,16.4-34.3C85.2,128.6,62.3,118.7,62.4,118.5z"/>
	<path id="XMLID_30_" class="st35" d="M89.2,130.8c1.8,1.2-4.1,9.1-6.7,11.3c-2.6,2.3-21.5-9.6-23.5-12.4c-2-2.8-1.3-6-0.8-7.3
		c0.6-1.3,3.1-6.9,3.8-6.9C63.5,115.4,87.4,129.6,89.2,130.8z"/>
	<path id="XMLID_29_" class="st36" d="M119.3,78.6c0.8,0,1.5-0.2,2.1-0.4c1.6-0.5,2.6-1.5,3.2-2.5c0.5-0.9,0.8-1.8,0.9-2.6
		c0.2,0.4,0.4,0.8,0.5,1.3c0.1,0.4,0.1,0.9,0,1.3c-0.2,1.1-0.8,2.1-1.7,3c-1,1.1-2.5,2-4,2.6c-0.2,0.1-0.4,0.1-0.5,0.2
		c-0.9,0.3-1.9,0.5-2.8,0.5c-0.1,0-0.3,0-0.4,0c-2.6,0-6.3-1-10.6-1.7c-3.9-0.7-6.2-0.4-12.7,0.1c-6.5,0.5-19.3,9.9-23.7,13.4
		c-2,1.6-3.4,1.7-3.8-1.1c-0.1-0.6,0.2-1.7,0.2-2.4c8.8-0.3,18-11.7,29.4-13.3c4.5-0.6,9.1-0.2,13.3,0.4c2.6,0.4,5,0.8,7.1,1
		C117,78.6,118.2,78.7,119.3,78.6z"/>
	<path id="XMLID_28_" class="st35" d="M62.7,97c1.7,0.3,2.5,1.7,2.5,1.7l-3.7,7l-2.3,4.4c0,0-1.6-4.4-7.3-4.1
		c-5.7,0.3-15,11.9-17.5,10C28.3,111.1,52.2,96,62.7,97z"/>
	<path id="XMLID_27_" class="st37" d="M57.8,108.3c-1.1-1.2-3-2.4-6.1-2.3c-5.7,0.3-15,11.9-17.5,10c-0.3-0.2-0.5-0.4-0.6-0.7
		c0.4-0.1,0.9-0.3,1.5-0.6c0.3-0.2,0.7-0.4,1.1-0.7c3.5-2.5,10.3-8.5,13.4-9.5c3.2-1,6.6-1.3,9,1.7c0.1,0.1,0.2,0.3,0.4,0.4
		c0.4,0.5,0.8,1,1.1,1.5c-0.3,0.6-0.7,1.3-1.1,2C59.1,110.1,58.7,109.2,57.8,108.3z"/>
	<path id="XMLID_26_" class="st36" d="M35.9,133.6c3.5-6.4,9.3-19,12.6-26.2c2,1.4,5.2,2.8,7.7,3.3c1,0.2,1.8,0.3,2.5,0.2
		c-7.9,14.9-20.4,38.4-21.6,40.4c-0.5,0.9-1.7,1.2-3.2,0.9c-2.9-0.4-6.9-2.8-9-6.4C27.9,143.5,32.7,139.4,35.9,133.6z"/>
	<path id="XMLID_25_" class="st36" d="M57.1,165c5.1,2,10.1,1,11.2-0.5c0.1-0.2,0.4-0.7,0.9-1.4c1.7-2.8,5.4-9.1,8.9-15
		c1.2-2,2.3-4,3.4-5.7c0.1,0,0.1,0,0.2,0c-0.9,1.8-1.8,3.7-2.8,5.6c-2.7,5.3-5.6,10.7-7.4,14.2c-0.9,1.7-1.5,2.9-1.8,3.4
		c-1.6,3.4-8.7,4.1-16.2,0.9c-7.5-3.2-9.9-12.4-9.7-15.3c0.2-2,8.6-15.6,14.1-24.6c0.1,0.5,0.2,1,0.4,1.5
		c-4.5,6.6-11.5,17.8-11,23.1C47.8,158.8,52,163,57.1,165z"/>
	<ellipse id="XMLID_24_" class="st27" cx="69.6" cy="131.3" rx="1.8" ry="1.9"/>
	<path id="XMLID_23_" class="st38" d="M73.6,212.7c1.2-0.2,6.4-4.3,7.9-3.2c1.5,1.1,3.5,8.1,8.5,10.7c5,2.7,5.9,2.7,5.8,3.8
		c-0.1,1.1-1.6,2-3.2,2.4c-1.7,0.3-11.4,1.6-14.9-3.6C74.1,217.5,73.6,212.7,73.6,212.7z"/>
	<path id="XMLID_22_" class="st39" d="M146.6,46.5c-5.3,0.9-3.2,12-0.6,15.1c0.8,1,2.1,2.2,3.2,2.8c-1.3,1.2-4-1.2-5.4-2.8
		c-2.6-3.1-4.7-14.2,0.6-15.1c1-0.2,2-0.2,2.9,0C147,46.5,146.8,46.5,146.6,46.5z"/>
	<path id="XMLID_21_" class="st3" d="M146.7,68.4c-1.9-0.8-4.3-2.9-6-4.5c-0.7-0.7-1.2-1.2-1.6-1.6c-1.1-1.1-1.2-7.6-1.1-12.2
		c0.1-2.4,0.2-4.3,0.4-4.7c0.5-1.2,5.8-3.1,9.9-2.6c0.8,0.1,1.6,0.4,2.2,0.8c-2.6-0.5-10.3-0.6-11.2,2.6c-0.6,2-0.5,14,1.4,15.7
		c2.2,2.1,8.1,6.7,8.1,6.7s0,0,0,0C148.3,68.9,147.6,68.8,146.7,68.4z"/>
	<path id="XMLID_20_" class="st40" d="M87.3,220.3c-4.5-2.9-6.1-8-6.1-8s-2.7,1.6-5.9,2.9c-0.3,0.1-0.7,0.3-1,0.4
		c-0.5-1.8-0.7-2.9-0.7-2.9c0.2,0,0.6-0.2,1.1-0.5c2-1.1,5.6-3.5,6.8-2.7c1.5,1.1,3.5,8.1,8.5,10.7c5,2.7,5.9,2.7,5.8,3.8
		c-0.1,1.1-1.6,2-3.2,2.4c-0.2,0-0.7,0.1-1.2,0.2c0.1-0.1,0.2-0.1,0.3-0.2c1.4-0.8,2.9-1.7,2.9-1.7S91.7,223.1,87.3,220.3z"/>
	<path id="XMLID_19_" class="st41" d="M71.9,213.7l-47,0c-1.2,0-2.1,1.2-2.1,2.7l0,7.6c0,1.5,1,2.7,2.1,2.7l47,0v-1.4l-46.9,0
		c-0.6,0-1.1-0.6-1.1-1.3l0-7.6c0-0.7,0.5-1.3,1.1-1.3l46.9,0V213.7z"/>
	<path id="XMLID_18_" class="st42" d="M71.4,215.1c-0.5,1.6-0.7,3.4-0.7,5.1c0,1.7,0.2,3.5,0.7,5.1l-46.5,0c-0.6,0-1-0.6-1-1.3
		l0-7.6c0-0.7,0.5-1.3,1-1.3L71.4,215.1z"/>
	<rect id="XMLID_17_" x="26" y="217.4" class="st43" width="42.5" height="0.4"/>
	<rect id="XMLID_16_" x="26" y="219.3" class="st43" width="42.5" height="0.4"/>
	<rect id="XMLID_15_" x="26" y="221.6" class="st43" width="42.5" height="0.4"/>
	<rect id="XMLID_14_" x="26" y="223.6" class="st43" width="42.5" height="0.4"/>
	<path id="XMLID_13_" class="st41" d="M64.6,200.6l-47,0c-1.2,0-2.1,1.2-2.1,2.7l0,7.6c0,1.5,1,2.7,2.1,2.7l47,0v-1.4l-46.9,0
		c-0.6,0-1.1-0.6-1.1-1.3l0-7.6c0-0.7,0.5-1.3,1.1-1.3l46.9,0L64.6,200.6z"/>
	<path id="XMLID_12_" class="st42" d="M64.1,202c-0.5,1.6-0.7,3.4-0.7,5.1c0,1.7,0.2,3.5,0.7,5.1l-46.5,0c-0.6,0-1-0.6-1-1.3l0-7.6
		c0-0.7,0.5-1.3,1-1.3L64.1,202z"/>
	<rect id="XMLID_11_" x="18.7" y="204.4" class="st43" width="42.5" height="0.4"/>
	<rect id="XMLID_10_" x="18.7" y="206.2" class="st43" width="42.5" height="0.4"/>
	<rect id="XMLID_9_" x="18.7" y="208.6" class="st43" width="42.5" height="0.4"/>
	<rect id="XMLID_8_" x="18.7" y="210.5" class="st43" width="42.5" height="0.4"/>
	<path id="XMLID_7_" class="st41" d="M23.2,187.6l47,0c1.2,0,2.1,1.2,2.1,2.7v7.6c0,1.5-1,2.7-2.1,2.7l-47,0l0-1.4l46.9,0
		c0.6,0,1.1-0.6,1.1-1.3v-7.6c0-0.7-0.5-1.3-1.1-1.3l-46.9,0L23.2,187.6z"/>
	<path id="XMLID_6_" class="st42" d="M23.6,189c0.5,1.6,0.7,3.4,0.7,5.1c0,1.7-0.2,3.5-0.7,5.1l46.5,0c0.6,0,1-0.6,1-1.3v-7.6
		c0-0.7-0.5-1.3-1-1.3L23.6,189z"/>
	<rect id="XMLID_5_" x="26.5" y="191.3" class="st43" width="42.5" height="0.4"/>
	<rect id="XMLID_4_" x="26.5" y="193.2" class="st43" width="42.5" height="0.4"/>
	<rect id="XMLID_3_" x="26.5" y="195.5" class="st43" width="42.5" height="0.4"/>
	<rect id="XMLID_2_" x="26.5" y="197.5" class="st43" width="42.5" height="0.4"/>
	
		<rect id="XMLID_105_" x="227.9" y="223.7" transform="matrix(-1 3.713130e-07 -3.713130e-07 -1 461.6447 448.7038)" class="st44" width="5.8" height="1.3"/>
	
		<rect id="XMLID_107_" x="220.7" y="223.7" transform="matrix(-1 3.713143e-07 -3.713143e-07 -1 447.1298 448.7038)" class="st44" width="5.8" height="1.3"/>
	<g id="XMLID_109_">
		
			<rect id="XMLID_106_" x="280.9" y="223.2" transform="matrix(-1 3.713255e-07 -3.713255e-07 -1 562.3383 449.224)" class="st20" width="0.5" height="2.9"/>
		
			<rect id="XMLID_110_" x="279.7" y="223.2" transform="matrix(-1 3.713065e-07 -3.713065e-07 -1 560.0083 449.224)" class="st20" width="0.5" height="2.9"/>
		
			<rect id="XMLID_111_" x="278.6" y="223.2" transform="matrix(-1 3.713065e-07 -3.713065e-07 -1 557.6782 449.224)" class="st20" width="0.5" height="2.9"/>
		
			<rect id="XMLID_115_" x="277.4" y="223.2" transform="matrix(-1 3.713272e-07 -3.713272e-07 -1 555.3482 449.224)" class="st20" width="0.5" height="2.9"/>
		
			<rect id="XMLID_116_" x="276.2" y="223.2" transform="matrix(-1 3.713118e-07 -3.713118e-07 -1 553.0182 449.224)" class="st20" width="0.5" height="2.9"/>
		
			<rect id="XMLID_117_" x="275.1" y="223.2" transform="matrix(-1 3.713065e-07 -3.713065e-07 -1 550.6882 449.224)" class="st20" width="0.5" height="2.9"/>
		
			<rect id="XMLID_118_" x="273.9" y="223.2" transform="matrix(-1 3.713272e-07 -3.713272e-07 -1 548.3582 449.224)" class="st20" width="0.5" height="2.9"/>
		
			<rect id="XMLID_119_" x="272.8" y="223.2" transform="matrix(-1 3.713041e-07 -3.713041e-07 -1 546.0281 449.224)" class="st20" width="0.5" height="2.9"/>
		
			<rect id="XMLID_120_" x="271.6" y="223.2" transform="matrix(-1 3.713232e-07 -3.713232e-07 -1 543.6981 449.224)" class="st20" width="0.5" height="2.9"/>
		
			<rect id="XMLID_121_" x="270.4" y="223.2" transform="matrix(-1 3.713232e-07 -3.713232e-07 -1 541.3681 449.224)" class="st20" width="0.5" height="2.9"/>
	</g>
	<path id="XMLID_158_" class="st45" d="M283.6,225.9c1,0.2,2-0.5,2.4-1.5c18.3-54,24.6-70,22.6-73.4L283.6,225.9z"/>
</g>
</svg>
