<?xml version="1.0" encoding="utf-8"?>
<!-- Generator: Adobe Illustrator 21.0.2, SVG Export Plug-In . SVG Version: 6.00 Build 0)  -->
<svg version="1.1" id="Capa_1" xmlns="http://www.w3.org/2000/svg" xmlns:xlink="http://www.w3.org/1999/xlink" x="0px" y="0px"
	 viewBox="0 0 500 108" style="enable-background:new 0 0 500 108;" xml:space="preserve">
<style type="text/css">
	.st0{fill:#FFFFFF;}
</style>
<g>
	<path class="st0" d="M170.3,65c-0.7,8.9-4.1,15.8-10,20.8c-6.1,4.9-14,7.3-23.9,7.3c-11.5,0-20.3-3.5-26.4-10.4
		c-6.1-6.6-9.1-16.5-9.1-29.5c0-13.3,3.1-23.3,9.3-29.9c6.3-6.9,15.5-10.4,27.5-10.4c9.7,0,17.5,2.4,23.3,7.3
		c5.5,4.7,8.6,11.4,9.3,19.9h-9.5c-3.5,0-6.1-1.6-7.5-4.7c-1-1.9-2.3-3.6-3.8-5.1c-3-2.2-6.9-3.3-11.7-3.3c-6.8,0-12,2.2-15.7,6.6
		c-3.5,4.4-5.3,10.9-5.3,19.5c0,8.3,1.8,14.6,5.3,19c3.4,4.6,8.5,6.9,15.3,6.9c4.7,0,8.6-1.2,11.7-3.5c2.8-2.2,4.8-5.8,6-10.6H170.3
		z"/>
	<path class="st0" d="M225.1,32.5V67c0,10.5-2.7,17.4-8.2,20.6c-5.5,3.3-11.4,4.9-17.9,4.9c-6.4-0.3-12.1-2.1-17.4-5.3
		c-5.2-3.2-7.9-10-7.9-20.2V32.5h15.5v37.7c0,3.5,1,6.1,3.1,7.8c2.1,1.6,4.4,2.4,7.1,2.4s5.1-0.8,7.2-2.4c2.1-1.6,3.2-4.2,3.2-7.8
		V40c0-2.1,0.7-3.8,2.1-5.3c1.4-1.5,3.2-2.2,5.4-2.2H225.1z"/>
	<path class="st0" d="M227.5,91.4V62.8c0-5.8,0.8-10.6,2.5-14.5c1.7-3.9,4-7,7-9.4c2.8-2.2,6.1-3.8,9.9-4.9c3.8-1,7.6-1.6,11.6-1.6
		c0.3,0,0.7,0,1.1,0c0.4,0,0.8,0,1.1,0v15.7h-5.1c-4.3,0-7.5,1-9.5,3.1c-2.1,2.1-3.1,5.3-3.1,9.7v30.3H227.5z"/>
	<path class="st0" d="M260.9,71.9H276c0.1,3,1.3,5.2,3.3,6.6c2.2,1.5,5.2,2.2,8.9,2.2c2.7,0,4.9-0.5,6.9-1.6c1.8-1,2.7-2.4,2.7-4.2
		c0-2.7-3.1-4.7-9.3-6c-2.7-0.4-4.7-0.9-6-1.3c-7.8-1.9-13.1-4.2-15.7-6.9c-3-2.7-4.4-6.2-4.4-10.6c0-5.6,2.1-10.3,6.4-14
		c4.4-3.4,10.2-5.1,17.3-5.1c7.7,0,13.8,1.7,18.4,5.1c4.3,3.7,6.6,8.5,6.9,14.4h-9.5c-2.8,0-4.9-1.3-6.4-3.8
		c-0.6-0.6-1.2-1.2-1.8-1.8c-1.8-1.3-4.2-2-7.3-2c-3,0-5.2,0.4-6.6,1.3c-1.3,0.9-2,2.2-2,4c0,2.4,3.8,4.4,11.5,6
		c0.9,0.3,1.7,0.5,2.3,0.7c0.7,0.1,1.3,0.2,1.9,0.2c7.5,1.9,12.8,4.1,15.7,6.6c2.8,2.7,4.2,6.2,4.2,10.6c0,6.5-2.4,11.5-7.1,15.1
		c-4.4,3.3-11.1,4.9-19.9,4.9c-8.4,0-14.7-1.7-18.8-5.1c-4.3-3.4-6.4-8.3-6.4-14.8V71.9z"/>
	<path class="st0" d="M353.3,89c-3.1,1.6-6.4,2.6-9.9,3c-3.5,0.4-6.5,0.6-9.2,0.6c-5.3,0-10-1.4-14-4.3c-4-2.9-6-7.6-6-14.3
		c0-6.2,1.8-10.6,5.4-13.3c3.6-2.7,8.2-4.4,13.8-5.3c0.7,0,1.6-0.1,2.7-0.3c1-0.2,2.2-0.4,3.5-0.6c6.5-0.9,9.7-2.8,9.7-5.8
		c0-2.2-1.1-3.7-3.4-4.3c-2.3-0.7-4.4-1-6.3-1c-2.1,0-3.9,0.3-5.5,0.9c-1.6,0.6-2.8,1.7-3.5,3.3h-14.8c0.6-4.6,2.7-8.3,6.2-11.3
		c4-3.4,9.7-5.1,17.1-5.1c8.3,0,14.5,1.4,18.6,4.2c4.3,3,6.4,7.1,6.4,12.4v20.2c0,5.9-1.1,10.5-3.2,13.8
		C358.8,85.1,356.3,87.5,353.3,89z M349.8,61.7c-2.1,1-4.9,2-8.6,2.9l-5.1,1.1c-2.7,0.7-4.6,1.7-5.8,2.9c-1,1.6-1.6,3.3-1.6,4.9
		c0,2.2,0.7,4,2,5.3c1.3,1.2,3.2,1.8,5.8,1.8c4.1,0,7.4-1.2,9.7-3.5c2.4-2.4,3.5-5.6,3.5-9.7V61.7z"/>
	<path class="st0" d="M417.8,91.4H410c-2.2,0-4-0.7-5.4-2.1c-1.4-1.4-2.1-3.2-2.1-5.4V53.7c0-3.5-1.1-6.1-3.2-7.8
		c-2.1-1.6-4.5-2.4-7.2-2.4c-2.7,0-5,0.8-7.1,2.4c-2.1,1.6-3.1,4.2-3.1,7.8v37.7h-15.5V56.8c0-10,2.6-16.8,7.9-20.2
		c5.2-3.4,11-5.2,17.4-5.5c6.5,0,12.5,1.7,17.9,5.1c5.5,3.4,8.2,10.3,8.2,20.6V91.4z"/>
	<path class="st0" d="M421.5,15.2h8c2.1,0,3.8,0.7,5.3,2.2c1.5,1.5,2.2,3.3,2.2,5.3v4.7h-15.5V15.2z M421.5,32.5h8
		c2.1,0,3.8,0.7,5.3,2.2c1.5,1.5,2.2,3.3,2.2,5.3v51.4h-15.5V32.5z"/>
	<path class="st0" d="M478.1,89c-3.1,1.6-6.4,2.6-9.9,3c-3.5,0.4-6.5,0.6-9.2,0.6c-5.3,0-10-1.4-14-4.3c-4-2.9-6-7.6-6-14.3
		c0-6.2,1.8-10.6,5.4-13.3c3.6-2.7,8.2-4.4,13.8-5.3c0.7,0,1.6-0.1,2.7-0.3c1-0.2,2.2-0.4,3.5-0.6c6.5-0.9,9.7-2.8,9.7-5.8
		c0-2.2-1.1-3.7-3.4-4.3c-2.3-0.7-4.4-1-6.3-1c-2.1,0-3.9,0.3-5.5,0.9c-1.6,0.6-2.8,1.7-3.5,3.3h-14.8c0.6-4.6,2.7-8.3,6.2-11.3
		c4-3.4,9.7-5.1,17.1-5.1c8.3,0,14.5,1.4,18.6,4.2c4.3,3,6.4,7.1,6.4,12.4v20.2c0,5.9-1.1,10.5-3.2,13.8
		C483.6,85.1,481.1,87.5,478.1,89z M474.6,61.7c-2.1,1-4.9,2-8.6,2.9l-5.1,1.1c-2.7,0.7-4.6,1.7-5.8,2.9c-1,1.6-1.6,3.3-1.6,4.9
		c0,2.2,0.7,4,2,5.3c1.3,1.2,3.2,1.8,5.8,1.8c4.1,0,7.4-1.2,9.7-3.5c2.4-2.4,3.5-5.6,3.5-9.7V61.7z"/>
	<path class="st0" d="M77.5,51.4H11.9l13.6-36.6c1-2.7,3.6-4.6,6.6-4.6h50.6c4.9,0,8.3,4.9,6.6,9.4L77.5,51.4z"/>
	<path class="st0" d="M77.5,55.8H11.9l13.6,36.6c1,2.7,3.6,4.6,6.6,4.6h50.6c4.9,0,8.3-4.9,6.6-9.4L77.5,55.8z"/>
</g>
</svg>
